<svg xmlns="http://www.w3.org/2000/svg" viewBox="0 0 128 128" role="img" aria-label="D3h420 favicon">
  <defs>
    <linearGradient id="fbg" x1="0" y1="0" x2="1" y2="1">
      <stop offset="0%" stop-color="#0a1224"/>
      <stop offset="100%" stop-color="#101e3f"/>
    </linearGradient>
    <linearGradient id="fg" x1="0" y1="0" x2="1" y2="1">
      <stop offset="0%" stop-color="#44e7ff"/>
      <stop offset="100%" stop-color="#8b92ff"/>
    </linearGradient>
  </defs>
  <rect x="8" y="8" width="112" height="112" rx="24" fill="url(#fbg)" stroke="#53dfff" stroke-opacity="0.55" stroke-width="4"/>
  <path d="M36 36h24c14 0 22 8 22 20 0 7-3 12-8 15 7 3 11 9 11 17 0 13-10 22-25 22H36V36Zm22 29c6 0 10-3 10-8s-4-8-10-8h-8v16h8Zm2 32c7 0 11-4 11-9s-4-9-11-9h-10v18h10Z" fill="url(#fg)"/>
</svg>
